<svg width="1284" height="2923" viewBox="0 0 1284 2923" fill="none" xmlns="http://www.w3.org/2000/svg">
<path fill-rule="evenodd" clip-rule="evenodd" d="M500.197 2895.73L428.63 2922.52L421.794 2909.29L515.241 2846L521.399 2841.22C898.689 2548.3 1038.16 2282.27 1061.84 2070.6C1070.61 1992.2 1063.55 1920.87 1046.54 1857.92C1037.2 1833.47 1025.52 1806.11 1011.29 1774.09C986.301 1717.86 952.871 1670.36 919.835 1632.79C914.085 1626.95 908.309 1621.42 902.535 1616.19L898.174 1612.25L897.901 1609.16C865.113 1575.69 834.743 1552.65 815.925 1541.25L753.298 1511.89C700.691 1493.41 556.255 1478.59 409.198 1574.56C258.957 1672.61 91.3758 1846.83 26.332 1921.83L0.941559 1906.77L710.345 0.119141L726.136 28.7572C833.323 223.159 1067.09 667.681 1141.2 885.162C1233.36 1155.65 1292.1 1385.78 1281.99 1634.61C1277.86 1736.07 1267.38 1808.69 1254.64 1866.76C1164.94 2497.89 751.508 2802.33 522.248 2887.97C514.702 2890.79 507.346 2893.37 500.197 2895.73ZM492.971 2882.42C492.951 2882.39 492.937 2882.37 492.927 2882.36L492.925 2882.36C492.915 2882.34 492.911 2882.33 492.912 2882.33C492.912 2882.33 492.913 2882.33 492.915 2882.33L492.999 2882.4L492.971 2882.42ZM495.219 2881.57C494.448 2881.83 493.68 2882.08 492.915 2882.33L504.859 2873.05L504.909 2873.01L524.054 2858.15L524.706 2857.71C525.128 2857.42 525.511 2857.1 525.855 2856.75L532.214 2851.82C854.764 2601.01 1005.69 2368.44 1058.09 2170.92C1061.51 2158.03 1064.51 2145.29 1067.11 2132.7C1067.36 2131.47 1067.62 2130.24 1067.86 2129.02C1068.8 2124.32 1069.69 2119.65 1070.52 2115.01C1088.01 2017.4 1081.51 1929.41 1060.83 1853.29C1051.26 1828.18 1039.36 1800.32 1025 1768C999.276 1710.12 964.883 1661.26 930.834 1622.58C924.778 1616.42 918.688 1610.58 912.598 1605.07L912.373 1602.53C906.799 1596.74 901.279 1591.23 895.855 1586.02C866.674 1557.97 840.258 1538.35 823 1528L759 1498C703 1478 553 1462.8 401 1562C267.06 1649.41 120.179 1796.05 42.4636 1881.2C31.9844 1892.68 22.7628 1903.05 15 1912L713 35.9998C716.08 41.5863 719.264 47.3776 722.545 53.3624C781.967 161.768 873.153 333.675 956.042 502.224C1028.04 648.618 1093.77 792.479 1127 890C1160.12 987.2 1188.83 1078.96 1211.55 1168.07C1241.93 1287.19 1261.59 1401.59 1266.76 1517.96C1268.46 1556.34 1268.59 1594.94 1267 1634C1264.87 1686.28 1261.06 1730.79 1256.1 1769.54C1251.51 1805.46 1245.95 1836.45 1239.87 1864.11C1232.89 1913.32 1223.92 1960.52 1213.22 2005.75C1212.7 2007.95 1212.18 2010.14 1211.65 2012.33L1211.57 2012.64C1089.32 2518.78 749.018 2777.86 539.824 2864.9L539.791 2864.91C538.045 2865.64 536.308 2866.35 534.58 2867.05C534.007 2867.13 533.434 2867.26 532.87 2867.48L495.219 2881.57Z" fill="black"/>
</svg>
